<svg width="16" height="11" viewBox="0 0 16 11" fill="none" xmlns="http://www.w3.org/2000/svg">
<path d="M11.6145 0.451798C9.53245 0.0811734 8.96462 1.37684 8.96462 1.37684C8.96462 1.37684 7.94829 0.291276 7.07184 0.0817822C5.83815 -0.2131 4.13311 0.305638 3.47555 1.37684C2.90772 2.30188 2.90772 3.59693 2.90772 3.59693C2.90772 3.59693 1.81688 3.35348 1.20406 3.78254C0.636978 4.17959 0.257804 4.52258 0.0684586 5.44762C-0.120887 6.37266 0.0672766 7.24709 0.825607 8.03773C1.63449 8.88107 3.097 8.77716 3.097 8.77716C3.097 8.77716 3.00122 9.35328 3.097 9.7022C3.34674 10.612 4.21622 11.0387 5.17906 10.9973C6.08046 10.9585 7.07184 9.7022 7.07184 9.7022C7.07184 9.7022 8.44131 10.975 9.53245 10.9973C10.3975 11.0149 10.9318 10.7766 11.6145 10.2572C12.1978 9.81344 12.7502 8.77716 12.7502 8.77716C12.7502 8.77716 15.2108 8.40654 15.5894 7.29709C15.9679 6.18765 16.2835 5.26261 15.5894 3.96695C14.8952 2.67129 13.318 2.8569 13.318 2.8569C13.318 2.8569 13.6966 0.822423 11.6145 0.451798Z" fill="white"/>
</svg>
