<svg xmlns="http://www.w3.org/2000/svg" viewBox="0 0 40 40"><path d="M.49 20ZM20 1a19 19 0 0 1 19 19h1A20 20 0 0 0 20 0Zm19 19a19 19 0 0 1-19 19v1a20 20 0 0 0 20-20ZM20 39A19 19 0 0 1 1 20H0a20 20 0 0 0 20 20ZM1 20A19 19 0 0 1 6.55 6.55l-.69-.69A20 20 0 0 0 0 20ZM6.55 6.55A19 19 0 0 1 20 1V0A20 20 0 0 0 5.86 5.86Z" fill="#8b9299" opacity=".2"/><path d="M22.53 12.92h2.71V8.61h-3c-4.16.14-5 2.48-5.09 4.93v1.83h-2.68v4h2.67v12h4.06v-12h3.49l.84-4H21.2v-1a1.38 1.38 0 0 1 .34-1 1.41 1.41 0 0 1 .99-.45Z" fill="#fff" fill-rule="evenodd"/></svg>