<svg width="130" height="38" xmlns="http://www.w3.org/2000/svg" viewBox="0 0 130 38"><path d="M29.15 18a11.75 11.75 0 0 0 2.66-3.37 8.65 8.65 0 0 0-2.66-.52Zm-.66 0a10.47 10.47 0 0 1-2.71-3.32 7.72 7.72 0 0 1 2.71-.52ZM29.15.75a10.93 10.93 0 0 1 2.66 3.33 7.6 7.6 0 0 1-2.66.51Zm-.66 0a10.51 10.51 0 0 0-2.71 3.33 9 9 0 0 0 2.71.51Zm.66 12.74V9.7h4a10 10 0 0 1-1 4.36 8.78 8.78 0 0 0-3-.57ZM37.8 9.7h-4a12.34 12.34 0 0 1-1 4.64 10.61 10.61 0 0 1 2.39 1.5A9.41 9.41 0 0 0 37.8 9.7Zm-3.18 6.56a8.57 8.57 0 0 0-2.2-1.36 11.67 11.67 0 0 1-2.71 3.47 9.13 9.13 0 0 0 4.91-2.11Zm-6.13-2.77V9.7h-4a10.62 10.62 0 0 0 1 4.36 9.07 9.07 0 0 1 3-.57Zm-8.7-3.79h4a12.43 12.43 0 0 0 1.08 4.64 9.84 9.84 0 0 0-2.43 1.5 9.34 9.34 0 0 1-2.65-6.14ZM23 16.26a8.23 8.23 0 0 1 2.2-1.36 11.67 11.67 0 0 0 2.71 3.47A9.16 9.16 0 0 1 23 16.26Zm6.18-11V9h4a10.25 10.25 0 0 0-1-4.4 9.08 9.08 0 0 1-3.03.65ZM37.8 9h-4a13.1 13.1 0 0 0-1-4.63 11 11 0 0 0 2.39-1.5A9.17 9.17 0 0 1 37.8 9Zm-3.18-6.6a8.06 8.06 0 0 1-2.2 1.4A12.29 12.29 0 0 0 29.71.38a9 9 0 0 1 4.91 2.06Zm-6.13 2.85V9h-4a11.23 11.23 0 0 1 1-4.4 9.1 9.1 0 0 0 3 .65ZM19.79 9h4a12 12 0 0 1 1.08-4.63 10.15 10.15 0 0 1-2.43-1.5A9.08 9.08 0 0 0 19.79 9ZM23 2.44a8.38 8.38 0 0 0 2.2 1.4A11.79 11.79 0 0 1 27.88.38 9 9 0 0 0 23 2.44ZM0 12.37h18c.65 3.33 2.94 6.09 7.53 8a4.64 4.64 0 0 1-4.12 3.05H11.6a3.77 3.77 0 0 1-3.13-2.3h9.92c.6-.09.6-.56 0-.66H8.66a3.9 3.9 0 0 1-3-2.24h11.28c.6-.1.6-.57 0-.66H5.52c-1.17 0-2.2-1.36-2.62-2.25h12.54c.61-.09.61-.65 0-.7H2.67C1.64 14.62.7 13.54 0 12.37Zm57.59 0h-18c-.66 3.33-3 6.09-7.54 8a4.65 4.65 0 0 0 4.12 3.05H46a3.74 3.74 0 0 0 3.13-2.3h-9.92c-.61-.09-.61-.56-.05-.66h9.78a3.9 3.9 0 0 0 3-2.24H40.66c-.61-.1-.61-.57 0-.66h11.41c1.17 0 2.2-1.36 2.62-2.25H42.15c-.61-.09-.61-.65 0-.7h12.78c1.07.01 1.96-1.07 2.66-2.24ZM37.33 37.53l5.76-11.81h3.79l2.38 11.81h-3.6l-.14-1.41h-3.79l-.61 1.41Zm5.34-3.84h2.43l-.61-4.36ZM29.8 37.53l1.36-8.86h-3.37l.56-3h10.29l-.56 3H34.9l-1.31 8.86Zm-15.44 0 5.8-11.81H24l2.34 11.81h-3.56l-.23-1.41h-3.74l-.61 1.41Zm5.38-3.84h2.44l-.66-4.36ZM8.19 37.53l2.34-11.81h3.83L12 37.53Zm57.63.24h.76V10.59h-.76Zm14.66-20.2-.85-2.51c-.19-.57-.32-1.08-.45-1.59-.13.52-.27 1-.44 1.58l-.85 2.52Zm-2.84.87-.91 2.74h-1.16l3-8.7h1.36l3 8.7h-1.2l-.92-2.74ZM88.12 21a4.31 4.31 0 0 1-1.8.36 3 3 0 0 1-3.1-3.19 3.17 3.17 0 0 1 3.35-3.32 3.68 3.68 0 0 1 1.57.33l-.26.87a2.67 2.67 0 0 0-1.31-.29 2.17 2.17 0 0 0-2.21 2.36 2.14 2.14 0 0 0 2.17 2.34 3.25 3.25 0 0 0 1.39-.31Zm5.44 0a4.31 4.31 0 0 1-1.8.36 3 3 0 0 1-3.1-3.19A3.17 3.17 0 0 1 92 14.8a3.68 3.68 0 0 1 1.57.33l-.26.87a2.67 2.67 0 0 0-1.31-.29 2.17 2.17 0 0 0-2.21 2.36A2.14 2.14 0 0 0 92 20.41a3.25 3.25 0 0 0 1.39-.31Zm1.07-4.07c0-.73 0-1.37-.06-1.95h1v1.23a1.86 1.86 0 0 1 1.72-1.37 1.15 1.15 0 0 1 .33 0v1.06a1.51 1.51 0 0 0-.39 0 1.59 1.59 0 0 0-1.52 1.46 2.89 2.89 0 0 0 0 .53v3.33h-1.08Zm7.78.57a1.61 1.61 0 0 0-1.57-1.85 1.88 1.88 0 0 0-1.74 1.85Zm-3.32.81a2 2 0 0 0 2.14 2.17 4.15 4.15 0 0 0 1.73-.32l.19.81a5 5 0 0 1-2.08.39 2.9 2.9 0 0 1-3.07-3.2c0-1.89 1.11-3.37 2.93-3.37 2 0 2.58 1.79 2.58 2.94a4.61 4.61 0 0 1 0 .53Zm9.82-.78a1.91 1.91 0 0 0 0-.48 1.67 1.67 0 0 0-1.64-1.32c-1.17 0-1.87 1-1.87 2.42s.62 2.31 1.84 2.31a1.72 1.72 0 0 0 1.67-1.36 1.89 1.89 0 0 0 0-.49ZM110 12v7.56c0 .55 0 1.18.06 1.61h-1v-1.08a2.32 2.32 0 0 1-2.13 1.22c-1.51 0-2.67-1.28-2.67-3.17 0-2.08 1.28-3.36 2.8-3.36a2.06 2.06 0 0 1 1.88 1V12Zm1.63 9.17h1.13v-6.24h-1.13Zm1.26-8a.7.7 0 0 1-1.4 0 .69.69 0 0 1 .71-.71.67.67 0 0 1 .73.72Zm2.86 0v1.79h1.63v.87h-1.63v3.37c0 .77.22 1.21.85 1.21a2.44 2.44 0 0 0 .66-.08v.85a2.73 2.73 0 0 1-1 .16 1.58 1.58 0 0 1-1.23-.48 2.32 2.32 0 0 1-.44-1.63V15.8h-1v-.87h1v-1.5Zm6.53 4.31a1.63 1.63 0 0 0-1.58-1.85 1.89 1.89 0 0 0-1.7 1.82Zm-3.33.81a2 2 0 0 0 2.14 2.17 4.15 4.15 0 0 0 1.73-.32l.19.81a5 5 0 0 1-2.08.39 2.9 2.9 0 0 1-3.06-3.15c0-1.89 1.1-3.37 2.92-3.37 2 0 2.58 1.79 2.58 2.94a3.07 3.07 0 0 1 0 .53Zm9.82-.78a1.91 1.91 0 0 0-.05-.48 1.67 1.67 0 0 0-1.64-1.32c-1.17 0-1.87 1-1.87 2.42s.62 2.31 1.85 2.31a1.71 1.71 0 0 0 1.66-1.36 1.89 1.89 0 0 0 .05-.49ZM130 12v7.56c0 .55 0 1.18.05 1.61h-1v-1.08a2.32 2.32 0 0 1-2.12 1.22c-1.51 0-2.67-1.28-2.67-3.17 0-2.08 1.27-3.36 2.79-3.36a2.09 2.09 0 0 1 1.89 1V12ZM80.48 30.76l-.85-2.51c-.19-.56-.32-1.08-.45-1.58-.13.51-.27 1-.44 1.57l-.85 2.52Zm-2.84.88-.91 2.73h-1.16l3-8.7h1.36l3 8.7h-1.2l-.92-2.73Zm10.23-1.05a1.73 1.73 0 0 0-.06-.52 1.65 1.65 0 0 0-1.59-1.2c-1.08 0-1.86.92-1.86 2.37 0 1.22.62 2.24 1.85 2.24a1.66 1.66 0 0 0 1.57-1.16 1.81 1.81 0 0 0 .09-.61ZM89 28.13c0 .45-.05.95-.05 1.71v3.63a3.58 3.58 0 0 1-.89 2.85 3.28 3.28 0 0 1-2.27.75 4.07 4.07 0 0 1-2.07-.51l.28-.87a3.5 3.5 0 0 0 1.83.49c1.16 0 2-.61 2-2.18v-.7a2.24 2.24 0 0 1-2 1.05 2.79 2.79 0 0 1-2.65-3.05C83.22 29.18 84.6 28 86 28a2.06 2.06 0 0 1 2 1.07v-.94Zm5.53 2.51A1.6 1.6 0 0 0 93 28.8a1.87 1.87 0 0 0-1.74 1.84Zm-3.32.82a2 2 0 0 0 2.14 2.16 4.06 4.06 0 0 0 1.72-.32l.2.82a5.08 5.08 0 0 1-2.08.38 2.9 2.9 0 0 1-3.07-3.15c0-1.88 1.11-3.37 2.93-3.37 2 0 2.58 1.8 2.58 2.95a5 5 0 0 1 0 .53Zm5.57-1.64v-1.69h1l.07 1A2.28 2.28 0 0 1 99.92 28c.87 0 2.21.52 2.21 2.66v3.73H101v-3.6c0-1-.37-1.84-1.44-1.84A1.59 1.59 0 0 0 98 30.09a1.64 1.64 0 0 0-.08.53v3.75h-1.1Zm8.22-3.49v1.8h1.62V29H105v3.37c0 .77.22 1.21.85 1.21a3.14 3.14 0 0 0 .66-.07v.85a2.82 2.82 0 0 1-1 .15 1.57 1.57 0 0 1-1.22-.47 2.35 2.35 0 0 1-.44-1.63V29h-1v-.86h1v-1.5Z" fill="#fff" fill-rule="evenodd"/></svg>