<svg id="Layer_1" xmlns="http://www.w3.org/2000/svg" viewBox="0 0 97 20" width="291" height="60" fill="#ffffff"><path d="M14.494 6.276l-3.118 9.19a.73.73 0 0 1-1.323.131l-.727-1.631a9.463 9.463 0 0 0-3.448-3.448l-1.631-.727a.73.73 0 0 1 .131-1.322l9.19-3.118a.721.721 0 0 1 .75.175.72.72 0 0 1 .176.75zm12.002-1.402l-1.867.445v2.237h-.826v1.605h.826v4.289c0 1.79.972 2.391 2.345 2.391.694 0 1.219-.154 1.682-.417v-1.527c-.37.185-.741.278-1.157.278-.633 0-1.003-.293-1.003-1.018V9.161h2.191V7.556h-2.191V4.874zm4.18 10.829h1.867V7.705h-1.867v7.998zm8.161-1.435c-1.435 0-2.438-1.173-2.438-2.623s.987-2.623 2.345-2.623c.941 0 1.543.417 2.114 1.018l1.157-1.25c-.756-.833-1.713-1.404-3.255-1.404-2.438 0-4.228 1.944-4.228 4.258 0 2.345 1.79 4.243 4.212 4.243 1.589 0 2.53-.633 3.333-1.527l-1.126-1.111c-.586.602-1.234 1.019-2.114 1.019zm12.466-6.712h-2.268l-3.379 3.61V4.874l-1.867.445v10.383h1.867v-2.33l1.142-1.188 2.453 3.518h2.16l-3.348-4.829 3.24-3.317zm8.516 4.212c0 .123-.015.432-.031.525h-5.986c.201 1.327 1.142 2.067 2.345 2.067.91 0 1.558-.339 2.206-.972l1.095.972c-.771.926-1.836 1.527-3.333 1.527-2.36 0-4.181-1.713-4.181-4.258 0-2.33 1.651-4.243 3.981-4.243 2.593.001 3.904 2.037 3.904 4.382zm-1.852-.709c-.123-1.203-.833-2.145-2.067-2.145-1.142 0-1.944.879-2.114 2.145h4.181zm5.573-6.185l-1.867.445v2.237h-.823v1.605h.823v4.289c0 1.79.972 2.391 2.345 2.391.694 0 1.219-.154 1.682-.417v-1.527c-.37.185-.741.278-1.157.278-.633 0-1.003-.293-1.003-1.018V9.161h2.191V7.556H63.54V4.874zm7.358 6.015c-.046-.015-.108-.031-.154-.046-.895-.293-1.682-.54-1.682-1.095 0-.509.417-.849 1.142-.849.679 0 1.512.293 2.299.771l.741-1.327c-.864-.571-1.975-.926-2.993-.926-1.62 0-2.901.941-2.901 2.484 0 1.589 1.342 2.083 2.546 2.438l.139.046c.895.262 1.682.478 1.682 1.08 0 .571-.463.91-1.265.91-.833 0-1.79-.339-2.669-1.003l-.833 1.265c1.018.802 2.299 1.219 3.456 1.219 1.697 0 3.024-.849 3.024-2.561-.001-1.496-1.344-2.036-2.532-2.406zM31.587 4.818a1.04 1.04 0 1 0 .001 2.081 1.04 1.04 0 0 0-.001-2.081z" /><path d="M19.993 9.61C19.796 4.427 15.573.204 10.39.007 4.689-.209 0 4.348 0 10c0 .145.005.289.011.432H.01v8.12c0 .8.648 1.448 1.448 1.448H10c5.652 0 10.209-4.689 9.993-10.39zM10 17.893a7.893 7.893 0 1 1 0-15.786 7.893 7.893 0 0 1 0 15.786zm69.971-2.284v-.975c-.54.645-1.365 1.14-2.565 1.14-1.5 0-2.819-.854-2.819-2.475 0-1.755 1.364-2.595 3.21-2.595.96 0 1.574.135 2.189.33v-.15c0-1.095-.69-1.695-1.95-1.695-.885 0-1.545.195-2.265.495l-.495-1.455c.87-.389 1.724-.659 3.014-.659 2.34 0 3.48 1.229 3.48 3.345v4.694h-1.799zm.045-3.314a5.185 5.185 0 0 0-1.815-.315c-1.14 0-1.814.465-1.814 1.26 0 .75.675 1.17 1.529 1.17 1.2 0 2.101-.675 2.101-1.664v-.451zm3.915-4.606h1.814v1.2c.51-.705 1.2-1.364 2.415-1.364 1.14 0 1.935.555 2.354 1.395C91.16 8.08 92 7.525 93.2 7.525c1.725 0 2.774 1.095 2.774 3.029v5.055H94.16v-4.5c0-1.26-.585-1.935-1.605-1.935-.99 0-1.694.69-1.694 1.965v4.47h-1.815v-4.515c0-1.229-.6-1.92-1.604-1.92s-1.695.75-1.695 1.98v4.454h-1.814V7.689z" fill="#b41e8e"/></svg>