<svg dwidth="164" height="31" xmlns="http://www.w3.org/2000/svg" viewBox="0 0 164 31"><path d="M17.22 4.17H30v22.74H17.22Z" fill="#ff5f00"/><path d="M18 15.54a14.4 14.4 0 0 1 5.58-11.37 14.47 14.47 0 1 0 0 22.74A14.4 14.4 0 0 1 18 15.54Z" fill="#eb001b"/><path d="M47.19 15.54a14.58 14.58 0 0 1-23.57 11.37 14.44 14.44 0 0 0 2.5-20.24 14.78 14.78 0 0 0-2.5-2.5 14.59 14.59 0 0 1 23.57 11.37Z" fill="#f79e1b"/><path d="M163.27 15.62V6.94h-2.1v5a3.75 3.75 0 0 0-3.08-1.4 4.86 4.86 0 0 0-4.87 4.86 1.41 1.41 0 0 0 0 .2 4.86 4.86 0 0 0 4.66 5.07h.2a3.88 3.88 0 0 0 3.08-1.41v1.22h2.1Zm-62.9-4.82h3.42v1.93h-3.44v4.34c0 1 .36 1.61 1.42 1.61a4.25 4.25 0 0 0 1.86-.57l.61 1.81a4.78 4.78 0 0 1-2.64.77c-2.47 0-3.36-1.33-3.36-3.58v-4.38h-2V10.8h2V7.86h2.15ZM72.3 14.37v6h-2V15c0-1.61-.69-2.53-2.15-2.53a2.27 2.27 0 0 0-2.38 2.18 1.7 1.7 0 0 0 0 .39v5.34h-2.2V15c0-1.61-.69-2.53-2.1-2.53a2.26 2.26 0 0 0-2.41 2.1 1.85 1.85 0 0 0 0 .47v5.36H57v-9.6h2.11V12a3.17 3.17 0 0 1 2.83-1.44 3.6 3.6 0 0 1 3.2 1.72 3.73 3.73 0 0 1 3.4-1.72 3.57 3.57 0 0 1 3.81 3.29 4.51 4.51 0 0 1-.05.52Zm49.49-3.81a2.84 2.84 0 0 0-2.56 1.4V10.8h-2.1v9.6h2.1V15c0-1.61.69-2.49 2.07-2.49a3.87 3.87 0 0 1 1.34.24l.64-2a4.75 4.75 0 0 0-1.49-.19Zm-31.15 0a7.21 7.21 0 0 1 4 1l-1 1.73a6.48 6.48 0 0 0-3-.84c-1.18 0-1.86.4-1.86 1.12s.72.85 1.66 1l1 .16c2.1.32 3.4 1.2 3.4 2.89s-1.62 3.14-4.41 3.14a7.18 7.18 0 0 1-4.24-1.28l1-1.65a5.43 5.43 0 0 0 3.24 1c1.45 0 2.22-.41 2.22-1.17 0-.52-.52-.84-1.7-1l-1-.17c-2.19-.32-3.36-1.28-3.36-2.85 0-1.92 1.59-3.08 4.06-3.08Zm60.47 0a2.82 2.82 0 0 0-2.55 1.4V10.8h-2.11v9.6h2.11V15c0-1.61.69-2.49 2.06-2.49a3.87 3.87 0 0 1 1.34.24l.65-2a4.75 4.75 0 0 0-1.49-.21Zm-22 10.13a4.9 4.9 0 0 1-5.19-4.6 3.69 3.69 0 0 1 0-.47 4.9 4.9 0 0 1 4.72-5.07h.47a5 5 0 0 1 3.48 1.16l-1 1.69a4.37 4.37 0 0 0-2.55-.88 2.92 2.92 0 0 0-2.93 2.91 1.09 1.09 0 0 0 0 .18 2.87 2.87 0 0 0 2.65 3.09h.24a4.38 4.38 0 0 0 2.55-.89l1 1.69a5 5 0 0 1-3.46 1.17Zm14.58-5.07V10.8h-2.11V12a3.7 3.7 0 0 0-3.08-1.4 4.86 4.86 0 0 0-4.87 4.86 1.41 1.41 0 0 0 0 .2 4.86 4.86 0 0 0 4.66 5.07h.2a3.83 3.83 0 0 0 3.08-1.41v1.2h2.11Zm-4.9-3.09a2.92 2.92 0 0 0-3 2.83 2.26 2.26 0 0 0 0 .26 3 3 0 0 0 2.89 3.1h.11a2.89 2.89 0 0 0 2.91-2.86v-.24a2.9 2.9 0 0 0-2.7-3.08Zm-28.44-2a4.73 4.73 0 0 0-4.84 4.61 3.39 3.39 0 0 0 0 .45 4.78 4.78 0 0 0 4.49 5.07 4.69 4.69 0 0 0 .53 0 5.86 5.86 0 0 0 4-1.37l-1-1.57a4.78 4.78 0 0 1-2.83 1 2.73 2.73 0 0 1-2.92-2.38H115a5.34 5.34 0 0 0 0-.8c0-2.93-1.9-5-4.62-5Zm2.44 4.21a2.42 2.42 0 0 0-2.47-2.33 2.45 2.45 0 0 0-2.53 2.33Zm45.57-2.21a2.92 2.92 0 0 0-3 2.83 2.26 2.26 0 0 0 0 .26 3 3 0 0 0 2.89 3.1h.11a2.89 2.89 0 0 0 2.92-2.87v-.23a2.9 2.9 0 0 0-2.69-3.08h-.23Zm-74.2 3.09V10.8h-2.1V12A3.7 3.7 0 0 0 79 10.56a4.86 4.86 0 0 0-4.87 4.86 1.41 1.41 0 0 0 0 .2 4.86 4.86 0 0 0 4.66 5.07H79a3.83 3.83 0 0 0 3.08-1.41v1.2h2.11Zm-4.9-3.09a2.92 2.92 0 0 0-3 2.83 2.26 2.26 0 0 0 0 .26 3 3 0 0 0 2.89 3.1h.11a2.89 2.89 0 0 0 2.91-2.86v-.24a2.9 2.9 0 0 0-2.69-3.08h-.22Z" fill="#fff" fill-rule="evenodd"/></svg>