<svg width="126" height="36" xmlns="http://www.w3.org/2000/svg" viewBox="0 0 126 36"><path d="M68.51 24.23v-1.69c0-1.28-.63-2-1.83-2a3.07 3.07 0 0 0-1.54.41l-.08.05.26.8.14-.09a2 2 0 0 1 1.1-.32.88.88 0 0 1 .66.22 1 1 0 0 1 .24.68 3.13 3.13 0 0 0-2.25.69 1.54 1.54 0 0 0-.44 1.11 1.4 1.4 0 0 0 1.49 1.42 1.8 1.8 0 0 0 1.3-.53l.06.43h1v-.14a8.16 8.16 0 0 1-.11-1.04Zm-1-.44a.53.53 0 0 1 0 .23 1 1 0 0 1-1 .67.6.6 0 0 1-.64-.66.67.67 0 0 1 .21-.52 2.06 2.06 0 0 1 1.43-.38Zm2.66-7.86a3.22 3.22 0 0 1-1.34.27 2.26 2.26 0 0 1-2.34-2.43A2.42 2.42 0 0 1 69 11.23a2.57 2.57 0 0 1 1.18.26h.09l-.27.91-.13-.07a1.84 1.84 0 0 0-.88-.2 1.44 1.44 0 0 0-1.46 1.6A1.42 1.42 0 0 0 69 15.3a2.12 2.12 0 0 0 1-.21V15l.2.86Zm4.8.17H74v-.53a1.82 1.82 0 0 1-1.4.63c-.5 0-1.66-.2-1.66-2.1v-2.76h1V14c0 .89.29 1.33.88 1.33a1.06 1.06 0 0 0 1-.68 1.08 1.08 0 0 0 .06-.38v-2.93h1.02v4.63Zm-1.33 6.52v2.82h-1v-2.73c0-.56-.16-1.22-.91-1.22a1.06 1.06 0 0 0-1 .76 1.13 1.13 0 0 0 0 .34v2.85h-1.16v-4.79h1v.53a1.79 1.79 0 0 1 1.4-.63c.23.02 1.64.12 1.64 2.07ZM76 11.47v-.13h1v.57a1.39 1.39 0 0 1 1.17-.68 1.07 1.07 0 0 1 .25 0h.09v1h-.4a1 1 0 0 0-1 .95 2.05 2.05 0 0 0 0 .37v2.55H76v-4.63ZM64.15 16.2a3.67 3.67 0 0 0 1.55-.31h.09l-.2-.81-.13.05a2.88 2.88 0 0 1-1.2.21 1.3 1.3 0 0 1-1.4-1.34H66v-.1a2.37 2.37 0 0 0 0-.41 2 2 0 0 0-2-2.26 2.32 2.32 0 0 0-2.23 2.57 2.22 2.22 0 0 0 2.38 2.4ZM64 12.06a.87.87 0 0 1 .67.26 1.34 1.34 0 0 1 .32.83h-2.1A1.19 1.19 0 0 1 64 12.06Zm-.71 8.61h1.16v.88h-1.16v2.31c0 .66.23.76.48.76a1.25 1.25 0 0 0 .44-.06h.15v.87h-.08a2.26 2.26 0 0 1-.77.12 1.24 1.24 0 0 1-1-.38 1.85 1.85 0 0 1-.35-1.27v-2.35h-.69v-.88h.69v-.79l1-.33Zm-2 2.93c0 .89-.6 1.94-2.29 1.94a3.3 3.3 0 0 1-1.65-.43l-.08-.05.29-.92.13.08a2.55 2.55 0 0 0 1.37.39c.73 0 1.18-.35 1.18-.95s-.3-.82-1.09-1.12c-1.16-.43-1.73-1.05-1.73-1.91a1.91 1.91 0 0 1 2.13-1.83 3 3 0 0 1 1.43.32l.09.05-.31.91-.15-.08a2.16 2.16 0 0 0-1.11-.28c-.73 0-1 .41-1 .81s.28.76 1.16 1.1c1.12.48 1.6 1.05 1.6 1.97Zm0-9.34c0 .9-.6 1.94-2.29 1.94a3.44 3.44 0 0 1-1.65-.42l-.08-.06.29-.92.13.09a2.6 2.6 0 0 0 1.37.39c.73 0 1.18-.36 1.18-.95s-.3-.83-1.09-1.13c-1.16-.43-1.73-1-1.73-1.91a1.91 1.91 0 0 1 2.13-1.83 3 3 0 0 1 1.45.32l.09.05-.31.91-.13-.08a2.09 2.09 0 0 0-1.1-.28c-.73 0-1 .41-1 .82s.28.75 1.16 1.1c1.07.47 1.55 1.04 1.55 1.96Zm64.71 4.3v6.88h-1v-6.88Zm-30.62 5.5c0 .9-.7 1.48-1.78 1.48a2.7 2.7 0 0 1-1.33-.33l-.08-.05.28-.86.13.08a2.08 2.08 0 0 0 1 .3c.47 0 .74-.2.74-.55s-.12-.48-.74-.72c-.84-.31-1.27-.77-1.27-1.39A1.52 1.52 0 0 1 94 20.57a2.19 2.19 0 0 1 1.16.3l.08.05-.28.83-.12-.08a1.74 1.74 0 0 0-.86-.25c-.37 0-.62.2-.62.5s.17.43.76.66c.88.32 1.26.78 1.26 1.48Zm22.19-1.44v2.82h-1v-2.73c0-.56-.16-1.22-.92-1.22a1.05 1.05 0 0 0-1 .75 1.23 1.23 0 0 0 0 .35v2.85h-1.06v-4.79h1v.53a1.8 1.8 0 0 1 1.4-.63c.17.02 1.58.12 1.58 2.07Zm-5.12 2.69v.13h-1v-.53a1.78 1.78 0 0 1-1.4.63c-.5 0-1.66-.2-1.66-2.1v-2.77h1.06v2.62c0 .89.28 1.32.87 1.32a1 1 0 0 0 1-1.05v-2.89h1.06v3.42c.04.53.05.91.07 1.22ZM98.89 22.2a2.15 2.15 0 0 0 2.26 2.41 3.23 3.23 0 0 0 1.27-.25l.13-.07.21.9h-.08a4.12 4.12 0 0 1-1.7.31 3.05 3.05 0 0 1-3.19-3.31 3.22 3.22 0 0 1 3.37-3.43 3.39 3.39 0 0 1 1.54.29l.09.05-.28.9-.13-.07a2.64 2.64 0 0 0-1.18-.25 2.2 2.2 0 0 0-2.31 2.52Zm6.49-1.63a2.33 2.33 0 0 0-2.33 2.53 2.25 2.25 0 0 0 2.27 2.44 2.33 2.33 0 0 0 2.33-2.54 2.26 2.26 0 0 0-2.27-2.43Zm0 4.11c-.71 0-1.22-.68-1.22-1.61s.38-1.64 1.24-1.64 1.23 1.05 1.23 1.61c-.05.96-.58 1.64-1.29 1.64Zm14-1.61a1.43 1.43 0 0 0 1.43 1.57 2.23 2.23 0 0 0 1-.21l.13-.06.2.86h-.09a3.3 3.3 0 0 1-1.34.27 2.26 2.26 0 0 1-2.34-2.44 2.42 2.42 0 0 1 2.52-2.53 2.57 2.57 0 0 1 1.18.26l.09.05-.25.86-.14-.07a1.9 1.9 0 0 0-.88-.2 1.44 1.44 0 0 0-1.5 1.64Zm4.62-3.64a.64.64 0 0 1-.65.66.63.63 0 0 1-.63-.66.64.64 0 0 1 1.28 0Zm-1.17 1.24h1.06v4.77h-1.06Zm-39.54 3.56v-1.69c0-1.28-.63-2-1.83-2a3.07 3.07 0 0 0-1.54.41l-.08.05.27.8.13-.09a2 2 0 0 1 1.1-.32.88.88 0 0 1 .66.22 1 1 0 0 1 .24.68A3.09 3.09 0 0 0 80 23a1.5 1.5 0 0 0-.44 1.1A1.4 1.4 0 0 0 81 25.54a1.84 1.84 0 0 0 1.35-.54l.05.43h1v-.14a6.21 6.21 0 0 1-.11-1.06Zm-1-.44a.85.85 0 0 1 0 .23 1 1 0 0 1-1 .67.6.6 0 0 1-.69-.69.67.67 0 0 1 .21-.52 2.06 2.06 0 0 1 1.43-.38Zm-3.46.36v-5.59h-1.09V21a1.74 1.74 0 0 0-1.25-.47 2 2 0 0 0-1.42.6 2.78 2.78 0 0 0-.7 1.95 2.18 2.18 0 0 0 2 2.42 1.8 1.8 0 0 0 1.43-.65v.55h1v-.13c.01-.22 0-.6 0-1.12Zm-1.06-.73a1.55 1.55 0 0 1 0 .33 1.1 1.1 0 0 1-1.07.88c-.89 0-1.21-.83-1.21-1.55 0-1 .49-1.62 1.22-1.62a1.09 1.09 0 0 1 1.06.85 1.55 1.55 0 0 1 0 .33Zm2.37-7.32h-1v-4.76h1Zm2.33-4.76h1.13v.87h-1.16v2.31c0 .67.23.76.49.76a1.58 1.58 0 0 0 .43 0l.15-.05v.88h-.09a2.39 2.39 0 0 1-.76.12 1.25 1.25 0 0 1-1-.39 1.91 1.91 0 0 1-.35-1.27v-2.36h-.69v-.87h.69v-.8l1-.33Zm-3.51-1.25a.63.63 0 0 1 .65-.64.63.63 0 0 1 .64.64.64.64 0 0 1-.64.66.64.64 0 0 1-.68-.66Zm7.76 10.51h.09v1H86.4a1 1 0 0 0-1 .95 2.12 2.12 0 0 0 0 .37v2.53h-1.05v-4.78h1v.58a1.41 1.41 0 0 1 1.18-.68 1.07 1.07 0 0 1 .19.03Zm-1-4.91L84 11.34h1.2l1 2.75a5.44 5.44 0 0 1 .19.57l.18-.59.92-2.73h1.12l-1.28 3.38a7 7 0 0 1-1.57 2.89 2.34 2.34 0 0 1-1.05.55h-.11l-.27-.91h.12a1.69 1.69 0 0 0 .66-.37 2.64 2.64 0 0 0 .66-.88.33.33 0 0 0 0-.12.4.4 0 0 0 0-.19Zm5.65 8.46v-5.59h-1.01V21a1.7 1.7 0 0 0-1.25-.47 2 2 0 0 0-1.41.6 2.7 2.7 0 0 0-.7 1.95 2.17 2.17 0 0 0 2 2.42 1.77 1.77 0 0 0 1.43-.65v.55h1v-.1c-.01-.3-.01-.87-.01-1.15Zm-1.06-.73a1.55 1.55 0 0 1 0 .33 1.11 1.11 0 0 1-1.08.88c-.88 0-1.19-.83-1.19-1.55 0-1 .48-1.62 1.22-1.62a1.08 1.08 0 0 1 1 .85 1.55 1.55 0 0 1 0 .33ZM0 2.49 12.18 36 54 22.72 43.84 0Zm21.81 15.75a4.58 4.58 0 0 1-1.57 1.62 7.67 7.67 0 0 1-2.43 1 14.63 14.63 0 0 1-3.16.32h-.85v4.32H8.37V11.08h6.36a10.9 10.9 0 0 1 5.6 1.22 4 4 0 0 1 2 3.7 4.33 4.33 0 0 1-.52 2.24Zm14 7.22a15.2 15.2 0 0 1-2.81.24 14.13 14.13 0 0 1-4-.53 8.71 8.71 0 0 1-3-1.47 6.28 6.28 0 0 1-1.86-2.34 7.15 7.15 0 0 1-.64-3.07 6.69 6.69 0 0 1 .68-3 6.81 6.81 0 0 1 1.82-2.4 9 9 0 0 1 3-1.51 12.75 12.75 0 0 1 3.76-.53 13.79 13.79 0 0 1 2.9.22 7.72 7.72 0 0 1 1.57.47v3.86a9 9 0 0 0-1.81-.77 7.43 7.43 0 0 0-2.14-.3 4.38 4.38 0 0 0-3 1 3.74 3.74 0 0 0-1.15 2.92 3.86 3.86 0 0 0 .34 1.75 3.41 3.41 0 0 0 1 1.23 4 4 0 0 0 1.43.74 6 6 0 0 0 1.77.25 9.29 9.29 0 0 0 1.9-.2 14.31 14.31 0 0 0 2-.61V25a13.8 13.8 0 0 1-1.78.46Zm9.44 0h-5.48V11.08h5.46Zm.58-18.9a2.84 2.84 0 0 1-1 2.28 3.76 3.76 0 0 1-4.71 0 2.87 2.87 0 0 1-.95-2.28 2.91 2.91 0 0 1 .95-2.31 3.76 3.76 0 0 1 4.71 0 2.88 2.88 0 0 1 .98 2.32Zm-28.67 9.5a1.7 1.7 0 0 1-.72 1.51 3.84 3.84 0 0 1-2.08.47h-.61v-3.85h.66c1.83 0 2.75.62 2.75 1.87Z" fill="#fff"/></svg>