<svg width="212" height="18" viewBox="0 0 212 18" fill="none" xmlns="http://www.w3.org/2000/svg">
<path d="M89.8155 3.50695H98.4438V16.8102H89.8155V3.50695ZM54.2024 9.13216C54.2024 11.0324 53.1545 11.9267 50.9153 11.9267C48.6761 11.9267 47.627 11.0336 47.627 9.13216V3.50695H39V9.45587C39 15.024 42.1159 17 50.9153 17C59.7146 17 62.8306 15.0205 62.8306 9.45587V3.50695H54.2024V9.13216ZM99.3555 8.44868H106.575V16.8102H115.203V8.44868H122.422V3.50695H99.3555V8.44868ZM80.2 10.406L73.4534 3.50695H63.9367V16.8102H72.4497V9.91113L79.1904 16.8102H88.7117V3.50695H80.2V10.406ZM189.262 6.32131C189.262 2.69187 186.051 1 179.286 1C171.988 1 168.91 2.93873 168.91 7.57537H175.693C175.693 5.97896 176.815 5.40843 179.039 5.40843C181.204 5.40843 181.889 5.78917 181.889 6.37834C181.889 7.15735 181.642 7.15735 176.184 8.43004C170.141 9.85525 168.266 12.6685 168.266 15.3861V16.8114H188.771V12.4926H176.778C177.501 11.808 179.552 11.6182 184.094 10.746C187.115 10.1778 189.262 9.13216 189.262 6.32131ZM123.338 16.8102H142.969V12.8419H131.588V11.7206H139.684V8.60005H131.588V7.47873H142.972V3.50695H123.338V16.8102ZM211.134 9.74116V14.188H208.055V16.8102H201.045V14.188H189.472V9.69804L197.776 1.52631H208.057V9.73651L211.134 9.74116ZM201.044 5.37001L196.619 9.74116H201.044V5.37001ZM168.549 10.1638C168.549 14.6293 165.736 16.8149 159.939 16.8149H144.072V3.50695H159.939C165.736 3.50695 168.549 5.69253 168.549 10.1638ZM160.13 10.1638C160.13 8.66173 159.293 7.95847 157.545 7.95847H152.49V12.368H157.545C159.293 12.3634 160.13 11.6601 160.13 10.1638Z" fill="white"/>
<rect width="24" height="9" fill="#177EEC"/>
<rect y="9" width="24" height="9" fill="#FED501"/>
</svg>
