<svg width="64" height="28" xmlns="http://www.w3.org/2000/svg" viewBox="0 0 64 28"><path d="m18.56 3.36-5.3 13.39-2.14-11.39a2.36 2.36 0 0 0-2.34-2H.12L0 3.93A21.54 21.54 0 0 1 5 5.6a2.18 2.18 0 0 1 1.23 1.73l4 15.7h5.38L23.9 3.36Zm7.52 0L21.88 23H27l4.17-19.64Zm29.17 5.31 1.54 7.39h-4.22Zm-.75-5.31a2.31 2.31 0 0 0-2.16 1.44L44.71 23H50l1.07-2.94h6.52l.66 2.94H63L58.85 3.36ZM32.56 9.5c0 2.83 2.52 4.41 4.45 5.35s2.64 1.59 2.64 2.45c0 1.32-1.58 1.9-3 1.92A10.65 10.65 0 0 1 31.38 18l-.92 4.31a15.2 15.2 0 0 0 5.65 1c5.35 0 8.84-2.63 8.86-6.72 0-5.19-7.18-5.48-7.13-7.8 0-.7.69-1.46 2.16-1.65A9.65 9.65 0 0 1 45 8l.89-4.17A13.81 13.81 0 0 0 41.15 3c-5.03 0-8.57 2.67-8.59 6.5Z" fill="#fff" fill-rule="evenodd"/></svg>