<svg width="164" height="31" xmlns="http://www.w3.org/2000/svg" viewBox="0 0 164 31"><path d="M17.21 4.13H30v22.74H17.21Z" fill="#ff5f00"/><path d="M18 15.5a14.46 14.46 0 0 1 5.57-11.37 14.51 14.51 0 1 0-9 25.84 14.56 14.56 0 0 0 9-3.1A14.46 14.46 0 0 1 18 15.5Z" fill="#eb001b"/><path d="M47.19 15.5a14.59 14.59 0 0 1-23.58 11.37 14.42 14.42 0 0 0 0-22.74A14.59 14.59 0 0 1 47.19 15.5Z" fill="#f79e1b"/><path d="M163.27 15.58V6.9h-2.11v5a3.7 3.7 0 0 0-3.08-1.4 4.86 4.86 0 0 0-4.86 5.06 4.86 4.86 0 0 0 4.86 5.06 3.82 3.82 0 0 0 3.08-1.4v1.18h2.11Zm-62.9-4.82h3.4v1.93h-3.44V17c0 1 .36 1.61 1.41 1.61a4.15 4.15 0 0 0 1.87-.57l.61 1.81a4.76 4.76 0 0 1-2.64.76c-2.47 0-3.36-1.32-3.36-3.57v-4.35h-2v-1.93h2V7.82h2.15ZM72.3 14.33v6h-2v-5.39c0-1.61-.69-2.53-2.14-2.53A2.28 2.28 0 0 0 65.74 15v5.34h-2.15V15c0-1.61-.69-2.53-2.11-2.53A2.27 2.27 0 0 0 59.09 15v5.34H57v-9.6h2.1V12a3.2 3.2 0 0 1 2.84-1.44 3.59 3.59 0 0 1 3.2 1.72 3.76 3.76 0 0 1 3.4-1.72 3.56 3.56 0 0 1 3.76 3.77Zm49.49-3.81a2.85 2.85 0 0 0-2.55 1.4v-1.16h-2.1v9.6h2.1V15c0-1.61.69-2.49 2.07-2.49a3.9 3.9 0 0 1 1.33.24l.65-2a4.85 4.85 0 0 0-1.5-.23Zm-31.14 0a7.23 7.23 0 0 1 4 1l-1 1.73a6.33 6.33 0 0 0-3-.84c-1.18 0-1.87.4-1.87 1.12s.73.84 1.66 1l1 .16c2.1.32 3.4 1.2 3.4 2.89s-1.62 3.13-4.42 3.13a7.16 7.16 0 0 1-4.21-1.24l1-1.65a5.46 5.46 0 0 0 3.24 1c1.46 0 2.23-.41 2.23-1.17 0-.52-.53-.84-1.7-1l-1-.17c-2.19-.32-3.36-1.28-3.36-2.85-.02-1.95 1.56-3.11 4.03-3.11Zm60.47 0a2.82 2.82 0 0 0-2.55 1.4v-1.16h-2.11v9.6h2.11V15c0-1.61.68-2.49 2.06-2.49a4 4 0 0 1 1.34.24l.65-2a5 5 0 0 0-1.5-.23Zm-22 10.12a4.89 4.89 0 0 1-5.18-5.06 4.89 4.89 0 0 1 5.18-5.06 5.05 5.05 0 0 1 3.49 1.16l-1 1.69a4.38 4.38 0 0 0-2.56-.88 2.91 2.91 0 0 0-2.91 3.09 2.87 2.87 0 0 0 2.91 3.1 4.39 4.39 0 0 0 2.56-.89l1 1.69a5.05 5.05 0 0 1-3.49 1.16Zm14.59-5.06v-4.82h-2.11v1.16a3.7 3.7 0 0 0-3.08-1.4 4.86 4.86 0 0 0-4.86 5.06 4.86 4.86 0 0 0 4.86 5.06 3.82 3.82 0 0 0 3.08-1.4v1.16h2.11Zm-4.91-3.09a2.92 2.92 0 0 0-3 3.09 3 3 0 0 0 3 3.1 2.9 2.9 0 0 0 2.92-3.1 2.89 2.89 0 0 0-2.92-3.09Zm-28.43-2a4.72 4.72 0 0 0-4.82 5.06 4.77 4.77 0 0 0 5 5.06 5.84 5.84 0 0 0 4-1.36l-1-1.57a4.71 4.71 0 0 1-2.84 1 2.72 2.72 0 0 1-2.91-2.38h7.21a5.36 5.36 0 0 0 0-.8c-.01-2.93-1.92-4.98-4.64-4.98Zm2.43 4.18a2.41 2.41 0 0 0-2.47-2.33 2.46 2.46 0 0 0-2.55 2.33Zm45.57-2.21a2.92 2.92 0 0 0-3 3.09 3 3 0 0 0 3 3.1 2.89 2.89 0 0 0 2.91-3.1 2.89 2.89 0 0 0-2.91-3.06Zm-74.2 3.09v-4.79h-2.11v1.16a3.7 3.7 0 0 0-3.06-1.4 4.86 4.86 0 0 0-4.86 5.06A4.86 4.86 0 0 0 79 20.64a3.82 3.82 0 0 0 3.08-1.4v1.16h2.11Zm-4.91-3.09a2.92 2.92 0 0 0-3 3.09 3 3 0 0 0 3 3.1 2.9 2.9 0 0 0 2.92-3.1 2.89 2.89 0 0 0-2.92-3.06Z" fill-rule="evenodd"/></svg>